<?xml version="1.0" encoding="UTF-8" standalone="no"?>
<svg
   viewBox="0 0 448 512"
   version="1.1"
   id="svg423"
   sodipodi:docname="draw-polygon.svg"
   inkscape:version="1.2.2 (732a01da63, 2022-12-09)"
   xmlns:inkscape="http://www.inkscape.org/namespaces/inkscape"
   xmlns:sodipodi="http://sodipodi.sourceforge.net/DTD/sodipodi-0.dtd"
   xmlns="http://www.w3.org/2000/svg"
   xmlns:svg="http://www.w3.org/2000/svg">
  <defs
     id="defs427" />
  <sodipodi:namedview
     id="namedview425"
     pagecolor="#ffffff"
     bordercolor="#000000"
     borderopacity="0.25"
     inkscape:showpageshadow="2"
     inkscape:pageopacity="0.0"
     inkscape:pagecheckerboard="0"
     inkscape:deskcolor="#d1d1d1"
     showgrid="false"
     inkscape:zoom="1.6699219"
     inkscape:cx="224.26199"
     inkscape:cy="256.29942"
     inkscape:window-width="1920"
     inkscape:window-height="1009"
     inkscape:window-x="1912"
     inkscape:window-y="-8"
     inkscape:window-maximized="1"
     inkscape:current-layer="svg423" />
  <!--!Font Awesome Free 6.7.2 by @fontawesome - https://fontawesome.com License - https://fontawesome.com/license/free Copyright 2025 Fonticons, Inc.-->
  <path
     id="path421"
     d="m 63.226562,50.005859 c -0.927437,0.01883 -1.782577,0.05697 -2.62207,0.121837 -10.180447,0.736673 -20.064073,4.987738 -27.56994,11.910673 -0.514409,0.462566 -1.093417,1.014221 -1.476653,1.402777 -8.650645,8.530875 -13.693322,20.614344 -13.5487,32.774478 0.02206,4.223276 0.627644,8.441986 1.785723,12.503126 0.116387,0.4054 0.347694,1.17074 0.525514,1.70711 3.223622,9.94575 10.065665,18.5843 18.806517,24.27336 2.375836,1.61465 5.124857,2.80481 6.954211,5.10819 3.139952,3.65918 4.433918,8.64971 4.030148,13.4047 -0.0039,72.69102 -0.0079,145.38203 -0.0117,218.07305 -6.432874,3.27448 -12.92859,6.71953 -18.134868,11.8126 -9.920497,9.59742 -15.134833,23.86321 -13.620991,37.5956 0.05616,0.53378 0.154873,1.38246 0.257978,2.04073 1.483678,10.03863 6.36482,19.55485 13.766758,26.51376 3.623816,3.45118 7.806344,6.31328 12.332686,8.44746 0.306613,0.13941 1.043219,0.4819 1.526689,0.67967 11.524507,4.9806 25.089364,4.75283 36.535811,-0.33982 0.564999,-0.25784 1.422249,-0.648 2.087724,-0.99042 7.411842,-3.70839 13.626233,-9.58905 18.131024,-16.51349 0.22802,-0.36774 0.6728,-1.04559 0.96759,-1.54199 1.02101,-1.72311 1.93818,-3.55517 3.46078,-4.90732 3.19041,-3.07143 7.76102,-4.51673 12.14507,-4.11648 31.71023,0.0732 63.42057,0.0153 95.13086,0.0345 41.57773,0 83.15547,0 124.7332,0 3.28507,7.00821 7.20328,13.88794 12.84713,19.28058 8.65883,8.34737 20.71375,13.00174 32.73129,12.70638 2.94846,-0.0544 5.88488,-0.4378 8.76924,-1.04165 0.38099,-0.0905 1.15154,-0.26164 1.67722,-0.39817 10.15835,-2.5752 19.32933,-8.78274 25.51643,-17.23831 1.02909,-1.37033 2.08314,-3.01659 2.8708,-4.36156 4.05918,-6.9561 6.20768,-14.9959 6.16211,-23.04922 -0.0177,-8.64499 -2.5076,-17.27952 -7.14844,-24.57774 -0.21406,-0.31336 -0.63401,-0.98348 -0.94842,-1.41945 -5.14187,-7.45866 -12.66035,-13.40282 -21.0008,-16.68406 -3.10035,-1.23219 -6.3397,-2.10617 -9.63476,-2.625 -0.33919,-0.0512 -1.10296,-0.16634 -1.60717,-0.22216 -0.68809,-0.0849 -1.31808,-0.15222 -1.91069,-0.19572 -3.16905,-0.36925 -6.42036,0.14797 -9.52806,-0.72979 -3.35385,-0.83249 -6.41818,-2.93656 -8.14611,-5.96328 -1.72894,-2.7833 -3.21085,-5.71069 -4.89679,-8.51999 -12.08403,-21.15707 -24.214,-42.28857 -36.25494,-63.46984 -2.55028,-4.80247 -2.05361,-10.75808 0.35677,-15.51279 2.86301,-5.60899 4.30518,-11.89194 4.55805,-18.16804 0.31631,-8.23586 -1.56911,-16.54759 -5.46799,-23.8133 -1.09026,-2.28221 -2.18149,-4.56395 -3.27104,-6.8465 16.20283,-28.35666 32.40815,-56.7119 48.61133,-85.06836 3.68422,-0.0361 7.46727,0.007 11.0646,-0.11325 1.61711,-0.0601 3.48696,-0.16694 5.21358,-0.38295 15.77749,-1.97552 30.10883,-12.84184 36.22967,-27.52474 2.91688,-6.81347 4.11579,-14.342559 3.53512,-21.727106 -0.0688,-0.985077 -0.20526,-2.230263 -0.37074,-3.308473 -1.93732,-12.884998 -9.68874,-24.740364 -20.66833,-31.744261 -0.36107,-0.235033 -1.04415,-0.65407 -1.5332,-0.943359 -1.52237,-0.893875 -3.28086,-1.785623 -4.7793,-2.439453 -1.38896,-0.608807 -2.80797,-1.147867 -4.24804,-1.623047 -0.35583,-0.118014 -1.08628,-0.342384 -1.5872,-0.487569 -1.48846,-0.427708 -2.99917,-0.776714 -4.52218,-1.057353 -0.46445,-0.08594 -1.27709,-0.217927 -1.87651,-0.300015 -1.41692,-0.201271 -3.04249,-0.332528 -4.3481,-0.389438 -11.21755,-0.525604 -22.52672,3.347113 -31.16388,10.500391 -4.86915,3.955362 -8.67657,9.046292 -11.78162,14.461101 -2.62611,4.653564 -8.10984,7.229327 -13.3532,7.080109 -3.4881,-0.17511 -6.98812,-0.04027 -10.48137,-0.08262 -70.15144,0 -140.30287,0 -210.4543,0 C 105.24644,74.881571 101.24936,67.895446 95.467849,62.46699 87.963847,55.375986 77.99252,50.970525 67.705078,50.144531 c -0.435854,-0.03712 -1.235194,-0.08167 -1.815094,-0.103198 -0.887266,-0.0395 -1.775419,-0.05038 -2.663422,-0.03547 z m 46.767578,59.693361 c 77.54362,0 155.08724,0 232.63086,0 0.51118,3.77902 1.34102,7.51265 2.56309,11.12691 1.06663,3.50939 2.28638,7.23478 1.46051,10.92689 -0.6926,2.62788 -2.34597,4.84886 -3.59982,7.22311 -13.65699,23.93088 -27.32194,47.85722 -40.99019,71.78168 -2.83138,-0.24984 -5.78457,-0.53921 -8.48242,-0.75195 -1.16721,-0.0806 -2.26383,-0.15949 -3.46289,-0.18359 -1.1726,-0.0218 -2.5923,-0.0312 -3.86099,0.0301 -6.90555,0.28828 -13.78439,2.02246 -19.88315,5.30388 -0.59212,0.32374 -1.44846,0.81487 -2.12871,1.22811 -11.39211,6.86535 -19.70869,18.80402 -21.7288,32.00019 -1.32251,8.26191 -0.41417,16.89109 2.74618,24.64865 0.17446,0.43641 0.37957,0.91917 0.59735,1.41153 4.76246,10.80361 13.87851,19.56507 24.80695,24.00644 0.35143,0.13289 1.08164,0.42917 1.58352,0.60813 6.09889,2.2499 12.6679,2.99734 19.13873,2.67331 3.19519,-0.15119 6.44351,-0.46566 9.68862,-0.55058 1.17854,0.094 1.97494,1.1057 2.37819,2.13047 14.11493,24.65042 28.18213,49.33195 42.2787,73.99433 0.63824,1.11711 1.27589,2.23456 1.91466,3.35137 -1.3447,6.08124 -2.59508,12.18324 -3.73205,18.34525 -0.18219,0.96557 -0.36378,1.93125 -0.54529,2.89694 -78.25521,0 -156.51042,0 -234.76563,0 -3.57472,-7.65101 -8.00115,-15.13205 -14.45263,-20.7161 -3.426473,-3.09878 -7.617905,-5.1466 -11.318023,-7.86757 -3.751575,-3.23193 -5.284103,-8.45191 -4.819194,-13.28 -0.0039,-73.22578 -0.0079,-146.45156 -0.01171,-219.67734 7.494158,-3.62407 14.926015,-7.8875 20.467622,-14.22615 4.322098,-4.87725 7.228188,-10.76196 10.337068,-16.43401 0.39648,0 0.79297,0 1.18945,0 z" />
</svg>
