<?xml version="1.0" encoding="UTF-8" standalone="no"?>
<svg
   viewBox="0 0 448 512"
   version="1.1"
   id="svg4"
   sodipodi:docname="hand-pointer.svg"
   inkscape:version="1.2.2 (732a01da63, 2022-12-09)"
   xmlns:inkscape="http://www.inkscape.org/namespaces/inkscape"
   xmlns:sodipodi="http://sodipodi.sourceforge.net/DTD/sodipodi-0.dtd"
   xmlns="http://www.w3.org/2000/svg"
   xmlns:svg="http://www.w3.org/2000/svg">
  <defs
     id="defs8" />
  <sodipodi:namedview
     id="namedview6"
     pagecolor="#ffffff"
     bordercolor="#000000"
     borderopacity="0.25"
     inkscape:showpageshadow="2"
     inkscape:pageopacity="0.0"
     inkscape:pagecheckerboard="0"
     inkscape:deskcolor="#d1d1d1"
     showgrid="false"
     inkscape:zoom="1.6699219"
     inkscape:cx="224.26199"
     inkscape:cy="256.29942"
     inkscape:window-width="1920"
     inkscape:window-height="1009"
     inkscape:window-x="1912"
     inkscape:window-y="-8"
     inkscape:window-maximized="1"
     inkscape:current-layer="svg4" />
  <!--!Font Awesome Free 6.7.2 by @fontawesome - https://fontawesome.com License - https://fontawesome.com/license/free Copyright 2025 Fonticons, Inc.-->
  <path
     id="path2"
     d="m 174.42188,6.0214844 c -15.02146,0.341097 -29.7745,6.8751426 -40.15405,17.7338346 -0.50794,0.528426 -1.02771,1.087378 -1.43349,1.542113 -1.98876,2.217836 -3.8009,4.593403 -5.43004,7.087334 -0.24685,0.383907 -0.69724,1.07815 -1.00192,1.595434 -3.80666,6.265694 -6.43558,13.25318 -7.62699,20.490503 -0.0384,0.313306 -0.16208,1.026997 -0.22075,1.508922 -0.19201,1.379561 -0.34131,2.942277 -0.41597,4.2235 -0.0562,0.908989 -0.0791,1.598933 -0.10669,2.542197 -0.0964,5.130178 0.0111,10.262011 -0.032,15.392959 0,66.395959 0,132.791929 0,199.187889 -3.82497,-4.15738 -7.52355,-8.42911 -11.35458,-12.58042 -6.62777,-7.30785 -15.214307,-12.78655 -24.592008,-15.82803 -9.895889,-3.24906 -20.666381,-3.80458 -30.830756,-1.50561 -0.384394,0.0999 -1.096896,0.25246 -1.527875,0.36971 -11.908919,3.00024 -22.810558,9.88483 -30.557461,19.42478 -7.897913,9.64434 -12.5866531,21.8744 -13.0963044,34.33442 -0.017011,0.45393 -0.047054,1.28179 -0.046889,1.87964 -0.014684,1.16425 0.014697,2.42686 0.073088,3.46733 0.1296853,2.69935 0.4646963,5.38731 0.9698952,8.0417 0.1009427,0.46434 0.2563535,1.28562 0.3989256,1.88233 0.2509294,1.12284 0.5675519,2.33286 0.858568,3.31633 1.725943,6.0498 4.527266,11.76244 8.093527,16.93721 22.793506,34.18171 45.538711,68.39669 68.372766,102.5514 15.502424,22.47279 37.117294,40.67247 61.904044,52.11808 4.10664,1.90214 8.3058,3.62992 12.51353,5.14237 8.60894,3.10341 17.49642,5.42647 26.51684,6.96439 1.52706,0.25037 3.27148,0.53013 4.89194,0.74357 4.57486,0.63226 9.2172,1.03634 13.76822,1.25447 0.38691,0.006 1.20021,0.0357 1.75034,0.0508 8.70158,0.23191 17.40722,0.0454 26.1106,0.10953 32.89142,-0.009 65.78331,0.0283 98.67443,-0.038 9.79284,-0.22858 19.75943,-1.74057 29.23379,-4.52667 20.35071,-5.88891 38.91258,-17.68544 53.00544,-33.48972 3.49152,-3.90439 6.71373,-8.04892 9.63751,-12.39491 0.79038,-1.17388 1.68344,-2.55582 2.47077,-3.83809 6.96316,-11.30644 11.931,-23.83844 14.5722,-36.85331 0.1183,-0.6152 0.30507,-1.53361 0.43475,-2.27673 1.45795,-7.93038 1.98789,-16.00886 1.85436,-24.06507 -0.008,-39.42101 0.0261,-78.84238 -0.0319,-118.26315 -0.37491,-14.97668 -6.91308,-29.67274 -17.75209,-40.00961 -9.19609,-8.87153 -21.36784,-14.64801 -34.10084,-15.91865 -0.87527,-0.0925 -2.03448,-0.18381 -3.02399,-0.23205 -2.74363,-0.14744 -5.64211,-0.0806 -8.28655,0.14807 -2.69035,0.21322 -5.34866,0.69657 -7.9961,1.19531 -1.97291,0.17499 -3.85618,-1.0391 -4.76662,-2.75021 -8.51234,-11.10804 -21.14213,-19.01159 -34.9094,-21.61531 -1.09587,-0.20933 -2.19835,-0.38955 -3.20881,-0.52509 -9.05379,-1.24695 -18.3821,-0.30702 -27.02598,2.65153 -0.97124,0.30854 -1.9424,0.61733 -2.91341,0.92658 -3.78089,-5.47069 -7.98388,-10.7364 -13.2051,-14.9081 -8.72233,-7.19902 -19.60027,-11.75779 -30.85349,-12.90831 -0.37517,-0.027 -1.14467,-0.11212 -1.53558,-0.13642 -0.9927,-0.0725 -1.86932,-0.1281 -2.91384,-0.15209 -2.31237,-0.0674 -4.72118,0.0569 -6.9239,0.24962 -2.88856,0.25976 -5.76889,0.60151 -8.65207,0.91389 -0.009,-35.00755 0.0292,-70.015626 -0.0377,-105.022854 -0.0201,-0.752659 -0.0354,-1.192764 -0.0833,-1.944294 -0.80804,-12.872281 -6.09849,-25.399608 -14.75087,-34.963765 -0.98001,-1.081825 -2.19407,-2.352403 -3.35164,-3.430872 C 206.00247,12.581171 192.94745,6.836543 179.49681,6.114029 177.80757,6.0133875 176.11374,5.9873689 174.42188,6.0214844 Z M 175.97266,42 c 8.64835,-0.111911 17.02339,5.470016 20.30005,13.466727 1.51413,3.516551 1.89462,7.401268 1.72729,11.194211 0.002,44.744642 -0.009,89.489882 0.029,134.234152 0.27292,7.2509 5.40897,14.02977 12.3261,16.23626 5.94293,1.99783 12.9048,0.64265 17.5637,-3.5852 1.7167,-1.42607 2.91171,-3.33353 4.4571,-4.91914 5.29339,-5.37849 13.45856,-7.77476 20.79722,-5.91675 8.28492,1.97214 15.14085,9.12838 16.47749,17.57981 0.55655,2.8486 0.11723,5.81887 0.99991,8.61322 1.66077,6.01595 6.59599,11.03921 12.66036,12.61736 5.97771,1.64064 12.77441,-0.0275 17.18944,-4.41488 1.86588,-1.75196 3.17956,-4.01681 5.20549,-5.61121 5.28895,-4.53495 12.78607,-6.39939 19.55806,-4.66617 7.90494,1.92175 14.53704,8.54377 16.15958,16.56092 0.56289,2.62413 1.40747,5.22662 2.96483,7.44159 3.15773,4.71644 8.64596,7.81398 14.34532,7.87512 4.51485,0.13438 9.01468,-1.50976 12.45864,-4.41581 6.92487,-5.05176 16.88967,-5.45791 24.17312,-0.91553 6.59814,3.95746 10.88317,11.5586 10.62209,19.27805 0.027,32.61515 0.013,65.23049 0.006,97.84571 -0.025,8.1402 0.0265,16.28157 -0.0465,24.42104 -0.56045,18.44482 -7.99461,36.58381 -20.54436,50.11475 -11.95118,13.01352 -28.42883,21.82707 -45.93829,24.32213 -5.39257,0.81638 -10.8569,0.9238 -16.30066,0.84291 -38.15785,-0.007 -76.31609,0.0243 -114.47368,-0.0342 -25.73245,-0.50973 -51.19044,-9.78849 -71.23103,-25.93569 -10.34233,-8.28924 -19.21781,-18.36299 -26.31198,-29.54986 -21.996029,-33.09569 -44.005522,-66.18307 -65.96954,-99.29964 -4.455182,-7.20702 -4.149026,-17.01588 0.751422,-23.93051 4.42689,-6.46423 12.509841,-10.23201 20.311112,-9.3227 6.852022,0.6911 13.257069,4.77457 16.759095,10.70826 12.882533,19.31794 25.712751,38.6719 38.652081,57.95116 3.44493,4.5742 9.20264,7.31104 14.92502,7.10068 3.39598,-0.0498 6.94181,-1.24617 9.76657,-3.26425 4.50414,-3.10263 7.26225,-8.40656 7.53725,-13.83595 0.085,-2.73921 -0.017,-5.4829 0.0204,-8.22441 0,-91.27201 0,-182.54401 0,-273.816016 0.72488,0.122814 0.89616,-0.363231 0.99502,-0.966941 2.37516,-8.216479 9.92406,-14.704017 18.45926,-15.610366 0.86801,-0.114149 1.74303,-0.157938 2.61799,-0.168787 z m 31.43554,252.02148 c -5.00993,0.20403 -9.44706,4.74044 -9.38259,9.78775 -0.0808,3.06773 0.0242,6.13731 -0.0257,9.206 0.008,29.2664 -0.0268,58.53389 0.0363,87.7996 0.3227,5.00399 4.94481,9.33242 9.98684,9.17905 4.02843,0.0115 7.92386,-2.62732 9.30073,-6.43307 0.78952,-1.90809 0.71913,-3.99236 0.67628,-6.01276 -0.009,-31.45413 0.0282,-62.90947 -0.0369,-94.36283 -0.32075,-4.90217 -4.75495,-9.17248 -9.69661,-9.16791 -0.28609,-0.0141 -0.57218,-9e-5 -0.85832,0.004 z m 64.00586,0 c -4.97605,0.19819 -9.39778,4.67469 -9.38665,9.68587 -0.0877,3.0676 0.0253,6.1373 -0.0275,9.20593 0.008,29.30037 -0.0272,58.60188 0.0366,87.90153 0.32191,4.98434 4.90769,9.30078 9.92952,9.17989 4.0477,0.035 7.97559,-2.60871 9.35777,-6.43389 0.77252,-1.87627 0.72743,-3.92508 0.67628,-5.91276 -0.008,-31.48748 0.0279,-62.97611 -0.0367,-94.46285 -0.31959,-4.90917 -4.76792,-9.18214 -9.71639,-9.16803 -0.27762,-0.014 -0.55525,1.4e-4 -0.83293,0.004 z m 64,0 c -4.97605,0.19819 -9.39778,4.67469 -9.38665,9.68587 -0.0877,3.0676 0.0253,6.1373 -0.0275,9.20593 0.008,29.30037 -0.0272,58.60188 0.0366,87.90153 0.32191,4.98434 4.90769,9.30078 9.92952,9.17989 4.0477,0.035 7.97559,-2.60871 9.35777,-6.43389 0.77252,-1.87627 0.72743,-3.92508 0.67628,-5.91276 -0.008,-31.48748 0.0279,-62.97611 -0.0367,-94.46285 -0.31959,-4.90917 -4.76792,-9.18214 -9.71639,-9.16803 -0.27762,-0.014 -0.55525,1.4e-4 -0.83293,0.004 z" />
</svg>
