<?xml version="1.0" encoding="UTF-8" standalone="no"?>
<svg
   viewBox="0 0 448 512"
   version="1.1"
   id="svg287"
   sodipodi:docname="trash.svg"
   inkscape:version="1.2.2 (732a01da63, 2022-12-09)"
   xmlns:inkscape="http://www.inkscape.org/namespaces/inkscape"
   xmlns:sodipodi="http://sodipodi.sourceforge.net/DTD/sodipodi-0.dtd"
   xmlns="http://www.w3.org/2000/svg"
   xmlns:svg="http://www.w3.org/2000/svg">
  <defs
     id="defs291" />
  <sodipodi:namedview
     id="namedview289"
     pagecolor="#ffffff"
     bordercolor="#000000"
     borderopacity="0.25"
     inkscape:showpageshadow="2"
     inkscape:pageopacity="0.0"
     inkscape:pagecheckerboard="0"
     inkscape:deskcolor="#d1d1d1"
     showgrid="false"
     inkscape:zoom="1.6699219"
     inkscape:cx="224.26199"
     inkscape:cy="256.29942"
     inkscape:window-width="1920"
     inkscape:window-height="1009"
     inkscape:window-x="1912"
     inkscape:window-y="-8"
     inkscape:window-maximized="1"
     inkscape:current-layer="svg287" />
  <!--!Font Awesome Free 6.7.2 by @fontawesome - https://fontawesome.com License - https://fontawesome.com/license/free Copyright 2025 Fonticons, Inc.-->
  <path
     id="path285"
     d="m 269.25391,6 c -31.17452,0.012383 -62.3494,-0.00904 -93.5237,0.024482 -13.80001,0.3171783 -27.29481,6.7268252 -36.34428,17.1360052 -3.77678,4.35052 -6.64042,9.378785 -9.91036,14.100098 C 118.65417,53.506974 107.83375,69.754027 97.011719,86 c -24.720103,0.0076 -49.441063,-0.02624 -74.160621,0.0347 -7.018088,0.354525 -13.5669436,5.256697 -15.826657,11.921527 -2.1836086,6.154685 -0.8010574,13.487085 3.719648,18.253435 3.515912,3.82493 8.731038,6.01537 13.929337,5.7813 4.44215,0.0255 8.88439,-0.009 13.326574,0.013 0.0018,103.76532 -0.0063,207.53081 0.0177,311.29603 0.228147,17.86981 7.273728,35.54567 19.397813,48.67527 11.115403,12.15243 26.365473,20.49731 42.653215,23.06233 2.41532,0.3875 4.93347,0.65984 7.28049,0.80627 3.77961,0.275 7.71507,0.13027 11.57617,0.15626 72.92456,-6.7e-4 145.84932,0.0107 218.77375,-0.0245 6.3836,-0.12548 12.74412,-1.11467 18.87898,-2.87791 0.76938,-0.22959 1.81518,-0.54051 2.68417,-0.83548 16.81895,-5.48408 31.41679,-17.3199 40.41755,-32.53201 6.76768,-11.3559 10.34046,-24.56178 10.32271,-37.77614 -0.006,-103.3112 -7.6e-4,-206.62305 -0.003,-309.9345 5.40972,-0.11801 10.82746,0.14546 16.23169,-0.15292 7.02887,-0.78369 13.30146,-6.14044 15.11206,-12.98966 1.709,-6.12148 0.004,-13.132498 -4.57502,-17.596496 -3.57027,-3.581877 -8.6822,-5.562807 -13.73709,-5.260072 C 399.01725,85.971541 375.00273,86.013874 350.98828,86 337.99694,66.547944 325.0492,47.066204 312.0156,27.642826 305.90318,18.841251 296.9456,12.032956 286.76866,8.6417726 281.14733,6.7353694 275.18571,5.8579219 269.25391,6 Z M 178.4668,41.984375 c 23.3449,0.03914 46.69041,0.01114 70.03554,0.02444 7.72898,0.01638 15.45992,-0.02878 23.18767,0.02598 4.89411,0.254789 9.35151,3.382833 11.71316,7.607109 8.10976,12.119355 16.2194,24.238792 24.32925,36.358093 -55.82161,0 -111.64323,0 -167.46484,0 7.55457,-11.30933 15.14523,-22.599761 22.67578,-33.921875 0.57917,-1.440879 1.70967,-2.55519 2.49219,-3.880859 1.86589,-2.6808 4.58773,-4.799917 7.76511,-5.656297 1.71027,-0.480173 3.49891,-0.565432 5.26614,-0.556594 z M 76,122 c 99.33333,0 198.66667,0 298,0 -0.001,103.70984 0.006,207.41991 -0.0197,311.1296 -0.25644,11.79117 -6.43939,23.26541 -16.12935,29.98527 -6.82988,4.81076 -15.26801,7.21663 -23.60491,6.88513 -74.49561,-0.003 -148.99167,0.009 -223.48699,-0.0243 C 98.848005,469.68885 87.285335,463.33715 80.619141,453.4668 75.962491,446.67794 73.661473,438.35857 74,430.14453 74,327.42969 74,224.71484 74,122 c 0.666667,0 1.333333,0 2,0 z m 67.41406,60.02148 c -5.01329,0.19748 -9.45068,4.73844 -9.39048,9.78579 -0.0778,3.06775 0.026,6.13733 -0.0236,9.20601 -0.002,66.50734 -0.006,133.015 0.0206,199.52215 0.16951,5.00416 4.65945,9.42846 9.68138,9.45983 3.21543,0.0753 6.4714,-1.45392 8.34499,-4.09096 0.33596,-0.44031 0.80207,-1.20876 1.06878,-1.84177 0.89701,-1.9079 0.97763,-4.04671 0.88436,-6.11448 -0.001,-68.86105 0.0122,-137.7227 -0.0252,-206.58337 -0.22639,-4.97174 -4.7064,-9.35579 -9.7103,-9.34742 -0.28347,-0.0141 -0.56696,3e-5 -0.8505,0.004 z m 80,0 c -5.01329,0.19748 -9.45068,4.73844 -9.39048,9.78579 -0.0778,3.06775 0.026,6.13733 -0.0236,9.20601 -0.002,66.50734 -0.006,133.015 0.0206,199.52215 0.16951,5.00416 4.65945,9.42846 9.68138,9.45983 3.21543,0.0753 6.4714,-1.45392 8.34499,-4.09096 0.33596,-0.44031 0.80207,-1.20876 1.06878,-1.84177 0.89701,-1.9079 0.97763,-4.04671 0.88436,-6.11448 -0.001,-68.86105 0.0122,-137.7227 -0.0252,-206.58337 -0.22639,-4.97174 -4.7064,-9.35579 -9.7103,-9.34742 -0.28347,-0.0141 -0.56696,3e-5 -0.8505,0.004 z m 79.99805,0 c -4.97528,0.19947 -9.39582,4.6753 -9.3847,9.68587 -0.0877,3.0676 0.0253,6.1373 -0.0274,9.20593 -0.002,66.54002 -0.006,133.08039 0.0208,199.62018 0.16724,5.02496 4.69515,9.46528 9.73804,9.46395 3.9637,0.10308 7.87189,-2.33865 9.3974,-6.02085 0.85682,-1.889 0.93571,-3.9913 0.84377,-6.02851 -0.001,-68.86105 0.0122,-137.7227 -0.0252,-206.58337 -0.22643,-4.97194 -4.70581,-9.35618 -9.7103,-9.34742 -0.28412,-0.0141 -0.56827,5e-5 -0.85245,0.004 z" />
</svg>
