<?xml version="1.0" encoding="iso-8859-1"?>
<!-- Uploaded to: SVG Repo, www.svgrepo.com, Generator: SVG Repo Mixer Tools -->
<svg version="1.1" id="Layer_1" xmlns="http://www.w3.org/2000/svg" xmlns:xlink="http://www.w3.org/1999/xlink" 
	 viewBox="0 0 512 512" xml:space="preserve">
<g transform="translate(1)">
	<g>
		<path style="fill:#FFE100;" d="M117.613,418.133H16.92c-5.12,0-9.387-4.267-9.387-9.387V394.24c0-5.973,4.267-10.24,9.387-10.24
			h99.84c5.12,0,9.387,4.267,9.387,9.387v14.507C127,413.867,122.733,418.133,117.613,418.133"/>
		<path style="fill:#FFE100;" d="M144.067,162.133c0,18.773-15.36,34.133-34.133,34.133S75.8,180.907,75.8,162.133
			S91.16,128,109.933,128S144.067,143.36,144.067,162.133"/>
	</g>
	<path style="fill:#63D3FD;" d="M494.787,179.2h-350.72v-34.133h350.72c4.267,0,7.68,3.413,7.68,7.68v18.773
		C502.467,175.787,499.053,179.2,494.787,179.2"/>
	<path style="fill:#3DB9F9;" d="M494.787,145.067h-25.6c4.267,0,7.68,3.413,7.68,7.68v18.773c0,4.267-3.413,7.68-7.68,7.68h25.6
		c4.267,0,7.68-3.413,7.68-7.68v-18.773C502.467,148.48,499.053,145.067,494.787,145.067"/>
	<path style="fill:#FFE100;" d="M75.8,162.133C75.8,143.36,91.16,128,109.933,128v-17.92c0-8.533-6.827-16.213-16.213-16.213H40.813
		c-9.387,0-16.213,6.827-16.213,16.213V384h85.333V196.267C91.16,196.267,75.8,180.907,75.8,162.133"/>
	<path style="fill:#FFFFFF;" d="M57.88,93.867H40.813c-9.387,0-16.213,6.827-16.213,16.213V384h17.067V110.08
		C41.667,100.693,48.493,93.867,57.88,93.867"/>
	<path d="M117.613,426.667H16.92c-9.387,0-17.92-8.533-17.92-17.92V394.24c0-10.24,8.533-18.773,17.92-18.773h99.84
		c10.24,0,17.92,8.533,17.92,17.92v14.507C135.533,418.133,127,426.667,117.613,426.667z M16.92,392.533l-0.853,0.853v14.507
		c0,0.853,0.853,1.707,0.853,1.707h99.84c0.853,0,0.853-0.853,0.853-0.853V394.24c0-0.853-0.853-0.853-0.853-0.853H16.92V392.533z"
		/>
	<path d="M109.933,204.8c-23.893,0-42.667-18.773-42.667-42.667s18.773-42.667,42.667-42.667S152.6,138.24,152.6,162.133
		S133.827,204.8,109.933,204.8z M109.933,136.533c-14.507,0-25.6,11.093-25.6,25.6s11.093,25.6,25.6,25.6s25.6-11.093,25.6-25.6
		S124.44,136.533,109.933,136.533z"/>
	<path d="M494.787,187.733H135.533v-51.2h359.253c8.533,0,16.213,7.68,16.213,16.213v18.773
		C511,180.053,503.32,187.733,494.787,187.733z M152.6,170.667h341.333V153.6H152.6V170.667z"/>
	<path d="M118.467,392.533h-102.4V110.08c0-13.653,11.093-24.747,24.747-24.747H93.72c13.653,0,24.747,11.093,24.747,24.747v26.453
		h-8.533c-14.507,0-25.6,11.093-25.6,25.6s11.093,25.6,25.6,25.6h8.533V392.533z M33.133,375.467H101.4v-171.52
		c-19.627-4.267-34.133-21.333-34.133-41.813s14.507-37.547,34.133-41.813v-10.24c0-4.267-3.413-7.68-7.68-7.68H40.813
		c-4.267,0-7.68,3.413-7.68,7.68V375.467z"/>
	
		<rect x="212.02" y="138.127" transform="matrix(-0.7071 -0.7071 0.7071 -0.7071 261.6402 433.2689)" width="17.067" height="48.64"/>
	
		<rect x="280.302" y="138.108" transform="matrix(-0.7071 -0.7071 0.7071 -0.7071 378.2182 481.5195)" width="17.067" height="48.64"/>
	
		<rect x="348.558" y="138.107" transform="matrix(-0.7071 -0.7071 0.7071 -0.7071 494.7404 529.7812)" width="17.067" height="48.64"/>
	
		<rect x="416.823" y="138.131" transform="matrix(-0.7071 -0.7071 0.7071 -0.7071 611.2591 578.0926)" width="17.067" height="48.64"/>
</g>
</svg>